<?xml version="1.0" encoding="UTF-8" standalone="no"?>
<!DOCTYPE svg PUBLIC "-//W3C//DTD SVG 1.1//EN"
 "http://www.w3.org/Graphics/SVG/1.1/DTD/svg11.dtd">
<!-- Generated by graphviz version 2.40.1 (20161225.0304)
 -->
<!-- Title: %3 Pages: 1 -->
<svg width="207pt" height="188pt"
 viewBox="0.00 0.00 207.43 188.00" xmlns="http://www.w3.org/2000/svg" xmlns:xlink="http://www.w3.org/1999/xlink">
<g id="graph0" class="graph" transform="scale(1 1) rotate(0) translate(4 184)">
<title>%3</title>
<polygon fill="#ffffff" stroke="transparent" points="-4,4 -4,-184 203.4274,-184 203.4274,4 -4,4"/>
<!-- node_(0, 0) -->
<g id="node1" class="node">
<title>node_(0, 0)</title>
<ellipse fill="none" stroke="#000000" cx="85.4274" cy="-162" rx="85.3549" ry="18"/>
<text text-anchor="middle" x="85.4274" y="-157.8" font-family="Times,serif" font-size="14.00" fill="#000000">ScalarTimesOperator</text>
</g>
<!-- node_(1, 0) -->
<g id="node2" class="node">
<title>node_(1, 0)</title>
<ellipse fill="none" stroke="#000000" cx="34.4274" cy="-90" rx="27" ry="18"/>
<text text-anchor="middle" x="34.4274" y="-85.8" font-family="Times,serif" font-size="14.00" fill="#000000">2</text>
</g>
<!-- node_(0, 0)&#45;&gt;node_(1, 0) -->
<g id="edge1" class="edge">
<title>node_(0, 0)&#45;&gt;node_(1, 0)</title>
<path fill="none" stroke="#000000" d="M72.558,-143.8314C66.3225,-135.0283 58.7389,-124.3221 51.9822,-114.7832"/>
<polygon fill="#000000" stroke="#000000" points="54.7082,-112.5765 46.0719,-106.4393 48.996,-116.6226 54.7082,-112.5765"/>
</g>
<!-- node_(1, 1) -->
<g id="node3" class="node">
<title>node_(1, 1)</title>
<ellipse fill="none" stroke="#000000" cx="136.4274" cy="-90" rx="56.5459" ry="18"/>
<text text-anchor="middle" x="136.4274" y="-85.8" font-family="Times,serif" font-size="14.00" fill="#000000">OperatorPlus</text>
</g>
<!-- node_(0, 0)&#45;&gt;node_(1, 1) -->
<g id="edge2" class="edge">
<title>node_(0, 0)&#45;&gt;node_(1, 1)</title>
<path fill="none" stroke="#000000" d="M98.2969,-143.8314C104.2004,-135.497 111.3123,-125.4567 117.7868,-116.3162"/>
<polygon fill="#000000" stroke="#000000" points="120.8146,-118.0967 123.7387,-107.9134 115.1024,-114.0506 120.8146,-118.0967"/>
</g>
<!-- node_(2, 0) -->
<g id="node4" class="node">
<title>node_(2, 0)</title>
<ellipse fill="none" stroke="#000000" cx="100.4274" cy="-18" rx="27" ry="18"/>
<text text-anchor="middle" x="100.4274" y="-15.3176" font-family="Times,serif" font-size="14.00" fill="#000000">Â⁽¹⁾</text>
</g>
<!-- node_(1, 1)&#45;&gt;node_(2, 0) -->
<g id="edge3" class="edge">
<title>node_(1, 1)&#45;&gt;node_(2, 0)</title>
<path fill="none" stroke="#000000" d="M127.5285,-72.2022C123.3252,-63.7955 118.2233,-53.5917 113.5849,-44.3149"/>
<polygon fill="#000000" stroke="#000000" points="116.5787,-42.4762 108.976,-35.0972 110.3177,-45.6068 116.5787,-42.4762"/>
</g>
<!-- node_(2, 1) -->
<g id="node5" class="node">
<title>node_(2, 1)</title>
<ellipse fill="none" stroke="#000000" cx="172.4274" cy="-18" rx="27" ry="18"/>
<text text-anchor="middle" x="172.4274" y="-15.3176" font-family="Times,serif" font-size="14.00" fill="#000000">B̂⁽¹⁾</text>
</g>
<!-- node_(1, 1)&#45;&gt;node_(2, 1) -->
<g id="edge4" class="edge">
<title>node_(1, 1)&#45;&gt;node_(2, 1)</title>
<path fill="none" stroke="#000000" d="M145.3263,-72.2022C149.5296,-63.7955 154.6315,-53.5917 159.27,-44.3149"/>
<polygon fill="#000000" stroke="#000000" points="162.5371,-45.6068 163.8788,-35.0972 156.2761,-42.4762 162.5371,-45.6068"/>
</g>
</g>
</svg>
